<?xml version="1.0" encoding="utf-8" standalone="no"?>
<!DOCTYPE svg PUBLIC "-//W3C//DTD SVG 1.1//EN"
  "http://www.w3.org/Graphics/SVG/1.1/DTD/svg11.dtd">
<svg xmlns:xlink="http://www.w3.org/1999/xlink" width="864pt" height="432pt" viewBox="0 0 864 432" xmlns="http://www.w3.org/2000/svg" version="1.1">
 <metadata>
  <rdf:RDF xmlns:dc="http://purl.org/dc/elements/1.1/" xmlns:cc="http://creativecommons.org/ns#" xmlns:rdf="http://www.w3.org/1999/02/22-rdf-syntax-ns#">
   <cc:Work>
    <dc:type rdf:resource="http://purl.org/dc/dcmitype/StillImage"/>
    <dc:date>2025-08-04T19:20:47.239814</dc:date>
    <dc:format>image/svg+xml</dc:format>
    <dc:creator>
     <cc:Agent>
      <dc:title>Matplotlib v3.10.0, https://matplotlib.org/</dc:title>
     </cc:Agent>
    </dc:creator>
   </cc:Work>
  </rdf:RDF>
 </metadata>
 <defs>
  <style type="text/css">*{stroke-linejoin: round; stroke-linecap: butt}</style>
 </defs>
 <g id="figure_1">
  <g id="patch_1">
   <path d="M 0 432 
L 864 432 
L 864 0 
L 0 0 
z
" style="fill: #ffffff"/>
  </g>
  <g id="axes_1">
   <g id="patch_2">
    <path d="M 56.9 374.198714 
L 853.2 374.198714 
L 853.2 27.6 
L 56.9 27.6 
z
" style="fill: #ffffff"/>
   </g>
   <g id="matplotlib.axis_1">
    <g id="xtick_1">
     <g id="line2d_1">
      <path d="M 115.42185 374.198714 
L 115.42185 27.6 
" clip-path="url(#p2ab47bc4ee)" style="fill: none; stroke-dasharray: 1.85,0.8; stroke-dashoffset: 0; stroke: #b0b0b0; stroke-opacity: 0.7; stroke-width: 0.5"/>
     </g>
     <g id="line2d_2">
      <defs>
       <path id="mcfc0e417fc" d="M 0 0 
L 0 3.5 
" style="stroke: #000000; stroke-width: 0.8"/>
      </defs>
      <g>
       <use xlink:href="#mcfc0e417fc" x="115.42185" y="374.198714" style="stroke: #000000; stroke-width: 0.8"/>
      </g>
     </g>
     <g id="text_1">
      <!-- 2016 -->
      <g transform="translate(108.375089 404.567489) rotate(-45) scale(0.1 -0.1)">
       <defs>
        <path id="DejaVuSans-32" d="M 1228 531 
L 3431 531 
L 3431 0 
L 469 0 
L 469 531 
Q 828 903 1448 1529 
Q 2069 2156 2228 2338 
Q 2531 2678 2651 2914 
Q 2772 3150 2772 3378 
Q 2772 3750 2511 3984 
Q 2250 4219 1831 4219 
Q 1534 4219 1204 4116 
Q 875 4013 500 3803 
L 500 4441 
Q 881 4594 1212 4672 
Q 1544 4750 1819 4750 
Q 2544 4750 2975 4387 
Q 3406 4025 3406 3419 
Q 3406 3131 3298 2873 
Q 3191 2616 2906 2266 
Q 2828 2175 2409 1742 
Q 1991 1309 1228 531 
z
" transform="scale(0.015625)"/>
        <path id="DejaVuSans-30" d="M 2034 4250 
Q 1547 4250 1301 3770 
Q 1056 3291 1056 2328 
Q 1056 1369 1301 889 
Q 1547 409 2034 409 
Q 2525 409 2770 889 
Q 3016 1369 3016 2328 
Q 3016 3291 2770 3770 
Q 2525 4250 2034 4250 
z
M 2034 4750 
Q 2819 4750 3233 4129 
Q 3647 3509 3647 2328 
Q 3647 1150 3233 529 
Q 2819 -91 2034 -91 
Q 1250 -91 836 529 
Q 422 1150 422 2328 
Q 422 3509 836 4129 
Q 1250 4750 2034 4750 
z
" transform="scale(0.015625)"/>
        <path id="DejaVuSans-31" d="M 794 531 
L 1825 531 
L 1825 4091 
L 703 3866 
L 703 4441 
L 1819 4666 
L 2450 4666 
L 2450 531 
L 3481 531 
L 3481 0 
L 794 0 
L 794 531 
z
" transform="scale(0.015625)"/>
        <path id="DejaVuSans-36" d="M 2113 2584 
Q 1688 2584 1439 2293 
Q 1191 2003 1191 1497 
Q 1191 994 1439 701 
Q 1688 409 2113 409 
Q 2538 409 2786 701 
Q 3034 994 3034 1497 
Q 3034 2003 2786 2293 
Q 2538 2584 2113 2584 
z
M 3366 4563 
L 3366 3988 
Q 3128 4100 2886 4159 
Q 2644 4219 2406 4219 
Q 1781 4219 1451 3797 
Q 1122 3375 1075 2522 
Q 1259 2794 1537 2939 
Q 1816 3084 2150 3084 
Q 2853 3084 3261 2657 
Q 3669 2231 3669 1497 
Q 3669 778 3244 343 
Q 2819 -91 2113 -91 
Q 1303 -91 875 529 
Q 447 1150 447 2328 
Q 447 3434 972 4092 
Q 1497 4750 2381 4750 
Q 2619 4750 2861 4703 
Q 3103 4656 3366 4563 
z
" transform="scale(0.015625)"/>
       </defs>
       <use xlink:href="#DejaVuSans-32"/>
       <use xlink:href="#DejaVuSans-30" transform="translate(63.623047 0)"/>
       <use xlink:href="#DejaVuSans-31" transform="translate(127.246094 0)"/>
       <use xlink:href="#DejaVuSans-36" transform="translate(190.869141 0)"/>
      </g>
     </g>
    </g>
    <g id="xtick_2">
     <g id="line2d_3">
      <path d="M 204.242073 374.198714 
L 204.242073 27.6 
" clip-path="url(#p2ab47bc4ee)" style="fill: none; stroke-dasharray: 1.85,0.8; stroke-dashoffset: 0; stroke: #b0b0b0; stroke-opacity: 0.7; stroke-width: 0.5"/>
     </g>
     <g id="line2d_4">
      <g>
       <use xlink:href="#mcfc0e417fc" x="204.242073" y="374.198714" style="stroke: #000000; stroke-width: 0.8"/>
      </g>
     </g>
     <g id="text_2">
      <!-- 2017 -->
      <g transform="translate(197.195312 404.567489) rotate(-45) scale(0.1 -0.1)">
       <defs>
        <path id="DejaVuSans-37" d="M 525 4666 
L 3525 4666 
L 3525 4397 
L 1831 0 
L 1172 0 
L 2766 4134 
L 525 4134 
L 525 4666 
z
" transform="scale(0.015625)"/>
       </defs>
       <use xlink:href="#DejaVuSans-32"/>
       <use xlink:href="#DejaVuSans-30" transform="translate(63.623047 0)"/>
       <use xlink:href="#DejaVuSans-31" transform="translate(127.246094 0)"/>
       <use xlink:href="#DejaVuSans-37" transform="translate(190.869141 0)"/>
      </g>
     </g>
    </g>
    <g id="xtick_3">
     <g id="line2d_5">
      <path d="M 292.819619 374.198714 
L 292.819619 27.6 
" clip-path="url(#p2ab47bc4ee)" style="fill: none; stroke-dasharray: 1.85,0.8; stroke-dashoffset: 0; stroke: #b0b0b0; stroke-opacity: 0.7; stroke-width: 0.5"/>
     </g>
     <g id="line2d_6">
      <g>
       <use xlink:href="#mcfc0e417fc" x="292.819619" y="374.198714" style="stroke: #000000; stroke-width: 0.8"/>
      </g>
     </g>
     <g id="text_3">
      <!-- 2018 -->
      <g transform="translate(285.772858 404.567489) rotate(-45) scale(0.1 -0.1)">
       <defs>
        <path id="DejaVuSans-38" d="M 2034 2216 
Q 1584 2216 1326 1975 
Q 1069 1734 1069 1313 
Q 1069 891 1326 650 
Q 1584 409 2034 409 
Q 2484 409 2743 651 
Q 3003 894 3003 1313 
Q 3003 1734 2745 1975 
Q 2488 2216 2034 2216 
z
M 1403 2484 
Q 997 2584 770 2862 
Q 544 3141 544 3541 
Q 544 4100 942 4425 
Q 1341 4750 2034 4750 
Q 2731 4750 3128 4425 
Q 3525 4100 3525 3541 
Q 3525 3141 3298 2862 
Q 3072 2584 2669 2484 
Q 3125 2378 3379 2068 
Q 3634 1759 3634 1313 
Q 3634 634 3220 271 
Q 2806 -91 2034 -91 
Q 1263 -91 848 271 
Q 434 634 434 1313 
Q 434 1759 690 2068 
Q 947 2378 1403 2484 
z
M 1172 3481 
Q 1172 3119 1398 2916 
Q 1625 2713 2034 2713 
Q 2441 2713 2670 2916 
Q 2900 3119 2900 3481 
Q 2900 3844 2670 4047 
Q 2441 4250 2034 4250 
Q 1625 4250 1398 4047 
Q 1172 3844 1172 3481 
z
" transform="scale(0.015625)"/>
       </defs>
       <use xlink:href="#DejaVuSans-32"/>
       <use xlink:href="#DejaVuSans-30" transform="translate(63.623047 0)"/>
       <use xlink:href="#DejaVuSans-31" transform="translate(127.246094 0)"/>
       <use xlink:href="#DejaVuSans-38" transform="translate(190.869141 0)"/>
      </g>
     </g>
    </g>
    <g id="xtick_4">
     <g id="line2d_7">
      <path d="M 381.397164 374.198714 
L 381.397164 27.6 
" clip-path="url(#p2ab47bc4ee)" style="fill: none; stroke-dasharray: 1.85,0.8; stroke-dashoffset: 0; stroke: #b0b0b0; stroke-opacity: 0.7; stroke-width: 0.5"/>
     </g>
     <g id="line2d_8">
      <g>
       <use xlink:href="#mcfc0e417fc" x="381.397164" y="374.198714" style="stroke: #000000; stroke-width: 0.8"/>
      </g>
     </g>
     <g id="text_4">
      <!-- 2019 -->
      <g transform="translate(374.350403 404.567489) rotate(-45) scale(0.1 -0.1)">
       <defs>
        <path id="DejaVuSans-39" d="M 703 97 
L 703 672 
Q 941 559 1184 500 
Q 1428 441 1663 441 
Q 2288 441 2617 861 
Q 2947 1281 2994 2138 
Q 2813 1869 2534 1725 
Q 2256 1581 1919 1581 
Q 1219 1581 811 2004 
Q 403 2428 403 3163 
Q 403 3881 828 4315 
Q 1253 4750 1959 4750 
Q 2769 4750 3195 4129 
Q 3622 3509 3622 2328 
Q 3622 1225 3098 567 
Q 2575 -91 1691 -91 
Q 1453 -91 1209 -44 
Q 966 3 703 97 
z
M 1959 2075 
Q 2384 2075 2632 2365 
Q 2881 2656 2881 3163 
Q 2881 3666 2632 3958 
Q 2384 4250 1959 4250 
Q 1534 4250 1286 3958 
Q 1038 3666 1038 3163 
Q 1038 2656 1286 2365 
Q 1534 2075 1959 2075 
z
" transform="scale(0.015625)"/>
       </defs>
       <use xlink:href="#DejaVuSans-32"/>
       <use xlink:href="#DejaVuSans-30" transform="translate(63.623047 0)"/>
       <use xlink:href="#DejaVuSans-31" transform="translate(127.246094 0)"/>
       <use xlink:href="#DejaVuSans-39" transform="translate(190.869141 0)"/>
      </g>
     </g>
    </g>
    <g id="xtick_5">
     <g id="line2d_9">
      <path d="M 469.97471 374.198714 
L 469.97471 27.6 
" clip-path="url(#p2ab47bc4ee)" style="fill: none; stroke-dasharray: 1.85,0.8; stroke-dashoffset: 0; stroke: #b0b0b0; stroke-opacity: 0.7; stroke-width: 0.5"/>
     </g>
     <g id="line2d_10">
      <g>
       <use xlink:href="#mcfc0e417fc" x="469.97471" y="374.198714" style="stroke: #000000; stroke-width: 0.8"/>
      </g>
     </g>
     <g id="text_5">
      <!-- 2020 -->
      <g transform="translate(462.927949 404.567489) rotate(-45) scale(0.1 -0.1)">
       <use xlink:href="#DejaVuSans-32"/>
       <use xlink:href="#DejaVuSans-30" transform="translate(63.623047 0)"/>
       <use xlink:href="#DejaVuSans-32" transform="translate(127.246094 0)"/>
       <use xlink:href="#DejaVuSans-30" transform="translate(190.869141 0)"/>
      </g>
     </g>
    </g>
    <g id="xtick_6">
     <g id="line2d_11">
      <path d="M 558.794933 374.198714 
L 558.794933 27.6 
" clip-path="url(#p2ab47bc4ee)" style="fill: none; stroke-dasharray: 1.85,0.8; stroke-dashoffset: 0; stroke: #b0b0b0; stroke-opacity: 0.7; stroke-width: 0.5"/>
     </g>
     <g id="line2d_12">
      <g>
       <use xlink:href="#mcfc0e417fc" x="558.794933" y="374.198714" style="stroke: #000000; stroke-width: 0.8"/>
      </g>
     </g>
     <g id="text_6">
      <!-- 2021 -->
      <g transform="translate(551.748172 404.567489) rotate(-45) scale(0.1 -0.1)">
       <use xlink:href="#DejaVuSans-32"/>
       <use xlink:href="#DejaVuSans-30" transform="translate(63.623047 0)"/>
       <use xlink:href="#DejaVuSans-32" transform="translate(127.246094 0)"/>
       <use xlink:href="#DejaVuSans-31" transform="translate(190.869141 0)"/>
      </g>
     </g>
    </g>
    <g id="xtick_7">
     <g id="line2d_13">
      <path d="M 647.372479 374.198714 
L 647.372479 27.6 
" clip-path="url(#p2ab47bc4ee)" style="fill: none; stroke-dasharray: 1.85,0.8; stroke-dashoffset: 0; stroke: #b0b0b0; stroke-opacity: 0.7; stroke-width: 0.5"/>
     </g>
     <g id="line2d_14">
      <g>
       <use xlink:href="#mcfc0e417fc" x="647.372479" y="374.198714" style="stroke: #000000; stroke-width: 0.8"/>
      </g>
     </g>
     <g id="text_7">
      <!-- 2022 -->
      <g transform="translate(640.325718 404.567489) rotate(-45) scale(0.1 -0.1)">
       <use xlink:href="#DejaVuSans-32"/>
       <use xlink:href="#DejaVuSans-30" transform="translate(63.623047 0)"/>
       <use xlink:href="#DejaVuSans-32" transform="translate(127.246094 0)"/>
       <use xlink:href="#DejaVuSans-32" transform="translate(190.869141 0)"/>
      </g>
     </g>
    </g>
    <g id="xtick_8">
     <g id="line2d_15">
      <path d="M 735.950024 374.198714 
L 735.950024 27.6 
" clip-path="url(#p2ab47bc4ee)" style="fill: none; stroke-dasharray: 1.85,0.8; stroke-dashoffset: 0; stroke: #b0b0b0; stroke-opacity: 0.7; stroke-width: 0.5"/>
     </g>
     <g id="line2d_16">
      <g>
       <use xlink:href="#mcfc0e417fc" x="735.950024" y="374.198714" style="stroke: #000000; stroke-width: 0.8"/>
      </g>
     </g>
     <g id="text_8">
      <!-- 2023 -->
      <g transform="translate(728.903263 404.567489) rotate(-45) scale(0.1 -0.1)">
       <defs>
        <path id="DejaVuSans-33" d="M 2597 2516 
Q 3050 2419 3304 2112 
Q 3559 1806 3559 1356 
Q 3559 666 3084 287 
Q 2609 -91 1734 -91 
Q 1441 -91 1130 -33 
Q 819 25 488 141 
L 488 750 
Q 750 597 1062 519 
Q 1375 441 1716 441 
Q 2309 441 2620 675 
Q 2931 909 2931 1356 
Q 2931 1769 2642 2001 
Q 2353 2234 1838 2234 
L 1294 2234 
L 1294 2753 
L 1863 2753 
Q 2328 2753 2575 2939 
Q 2822 3125 2822 3475 
Q 2822 3834 2567 4026 
Q 2313 4219 1838 4219 
Q 1578 4219 1281 4162 
Q 984 4106 628 3988 
L 628 4550 
Q 988 4650 1302 4700 
Q 1616 4750 1894 4750 
Q 2613 4750 3031 4423 
Q 3450 4097 3450 3541 
Q 3450 3153 3228 2886 
Q 3006 2619 2597 2516 
z
" transform="scale(0.015625)"/>
       </defs>
       <use xlink:href="#DejaVuSans-32"/>
       <use xlink:href="#DejaVuSans-30" transform="translate(63.623047 0)"/>
       <use xlink:href="#DejaVuSans-32" transform="translate(127.246094 0)"/>
       <use xlink:href="#DejaVuSans-33" transform="translate(190.869141 0)"/>
      </g>
     </g>
    </g>
    <g id="xtick_9">
     <g id="line2d_17">
      <path d="M 824.52757 374.198714 
L 824.52757 27.6 
" clip-path="url(#p2ab47bc4ee)" style="fill: none; stroke-dasharray: 1.85,0.8; stroke-dashoffset: 0; stroke: #b0b0b0; stroke-opacity: 0.7; stroke-width: 0.5"/>
     </g>
     <g id="line2d_18">
      <g>
       <use xlink:href="#mcfc0e417fc" x="824.52757" y="374.198714" style="stroke: #000000; stroke-width: 0.8"/>
      </g>
     </g>
     <g id="text_9">
      <!-- 2024 -->
      <g transform="translate(817.480809 404.567489) rotate(-45) scale(0.1 -0.1)">
       <defs>
        <path id="DejaVuSans-34" d="M 2419 4116 
L 825 1625 
L 2419 1625 
L 2419 4116 
z
M 2253 4666 
L 3047 4666 
L 3047 1625 
L 3713 1625 
L 3713 1100 
L 3047 1100 
L 3047 0 
L 2419 0 
L 2419 1100 
L 313 1100 
L 313 1709 
L 2253 4666 
z
" transform="scale(0.015625)"/>
       </defs>
       <use xlink:href="#DejaVuSans-32"/>
       <use xlink:href="#DejaVuSans-30" transform="translate(63.623047 0)"/>
       <use xlink:href="#DejaVuSans-32" transform="translate(127.246094 0)"/>
       <use xlink:href="#DejaVuSans-34" transform="translate(190.869141 0)"/>
      </g>
     </g>
    </g>
    <g id="text_10">
     <!-- Quarter -->
     <g transform="translate(431.870313 419.156175) scale(0.12 -0.12)">
      <defs>
       <path id="DejaVuSans-51" d="M 2522 4238 
Q 1834 4238 1429 3725 
Q 1025 3213 1025 2328 
Q 1025 1447 1429 934 
Q 1834 422 2522 422 
Q 3209 422 3611 934 
Q 4013 1447 4013 2328 
Q 4013 3213 3611 3725 
Q 3209 4238 2522 4238 
z
M 3406 84 
L 4238 -825 
L 3475 -825 
L 2784 -78 
Q 2681 -84 2626 -87 
Q 2572 -91 2522 -91 
Q 1538 -91 948 567 
Q 359 1225 359 2328 
Q 359 3434 948 4092 
Q 1538 4750 2522 4750 
Q 3503 4750 4090 4092 
Q 4678 3434 4678 2328 
Q 4678 1516 4351 937 
Q 4025 359 3406 84 
z
" transform="scale(0.015625)"/>
       <path id="DejaVuSans-75" d="M 544 1381 
L 544 3500 
L 1119 3500 
L 1119 1403 
Q 1119 906 1312 657 
Q 1506 409 1894 409 
Q 2359 409 2629 706 
Q 2900 1003 2900 1516 
L 2900 3500 
L 3475 3500 
L 3475 0 
L 2900 0 
L 2900 538 
Q 2691 219 2414 64 
Q 2138 -91 1772 -91 
Q 1169 -91 856 284 
Q 544 659 544 1381 
z
M 1991 3584 
L 1991 3584 
z
" transform="scale(0.015625)"/>
       <path id="DejaVuSans-61" d="M 2194 1759 
Q 1497 1759 1228 1600 
Q 959 1441 959 1056 
Q 959 750 1161 570 
Q 1363 391 1709 391 
Q 2188 391 2477 730 
Q 2766 1069 2766 1631 
L 2766 1759 
L 2194 1759 
z
M 3341 1997 
L 3341 0 
L 2766 0 
L 2766 531 
Q 2569 213 2275 61 
Q 1981 -91 1556 -91 
Q 1019 -91 701 211 
Q 384 513 384 1019 
Q 384 1609 779 1909 
Q 1175 2209 1959 2209 
L 2766 2209 
L 2766 2266 
Q 2766 2663 2505 2880 
Q 2244 3097 1772 3097 
Q 1472 3097 1187 3025 
Q 903 2953 641 2809 
L 641 3341 
Q 956 3463 1253 3523 
Q 1550 3584 1831 3584 
Q 2591 3584 2966 3190 
Q 3341 2797 3341 1997 
z
" transform="scale(0.015625)"/>
       <path id="DejaVuSans-72" d="M 2631 2963 
Q 2534 3019 2420 3045 
Q 2306 3072 2169 3072 
Q 1681 3072 1420 2755 
Q 1159 2438 1159 1844 
L 1159 0 
L 581 0 
L 581 3500 
L 1159 3500 
L 1159 2956 
Q 1341 3275 1631 3429 
Q 1922 3584 2338 3584 
Q 2397 3584 2469 3576 
Q 2541 3569 2628 3553 
L 2631 2963 
z
" transform="scale(0.015625)"/>
       <path id="DejaVuSans-74" d="M 1172 4494 
L 1172 3500 
L 2356 3500 
L 2356 3053 
L 1172 3053 
L 1172 1153 
Q 1172 725 1289 603 
Q 1406 481 1766 481 
L 2356 481 
L 2356 0 
L 1766 0 
Q 1100 0 847 248 
Q 594 497 594 1153 
L 594 3053 
L 172 3053 
L 172 3500 
L 594 3500 
L 594 4494 
L 1172 4494 
z
" transform="scale(0.015625)"/>
       <path id="DejaVuSans-65" d="M 3597 1894 
L 3597 1613 
L 953 1613 
Q 991 1019 1311 708 
Q 1631 397 2203 397 
Q 2534 397 2845 478 
Q 3156 559 3463 722 
L 3463 178 
Q 3153 47 2828 -22 
Q 2503 -91 2169 -91 
Q 1331 -91 842 396 
Q 353 884 353 1716 
Q 353 2575 817 3079 
Q 1281 3584 2069 3584 
Q 2775 3584 3186 3129 
Q 3597 2675 3597 1894 
z
M 3022 2063 
Q 3016 2534 2758 2815 
Q 2500 3097 2075 3097 
Q 1594 3097 1305 2825 
Q 1016 2553 972 2059 
L 3022 2063 
z
" transform="scale(0.015625)"/>
      </defs>
      <use xlink:href="#DejaVuSans-51"/>
      <use xlink:href="#DejaVuSans-75" transform="translate(78.710938 0)"/>
      <use xlink:href="#DejaVuSans-61" transform="translate(142.089844 0)"/>
      <use xlink:href="#DejaVuSans-72" transform="translate(203.369141 0)"/>
      <use xlink:href="#DejaVuSans-74" transform="translate(244.482422 0)"/>
      <use xlink:href="#DejaVuSans-65" transform="translate(283.691406 0)"/>
      <use xlink:href="#DejaVuSans-72" transform="translate(345.214844 0)"/>
     </g>
    </g>
   </g>
   <g id="matplotlib.axis_2">
    <g id="ytick_1">
     <g id="line2d_19">
      <path d="M 56.9 330.390827 
L 853.2 330.390827 
" clip-path="url(#p2ab47bc4ee)" style="fill: none; stroke-dasharray: 1.85,0.8; stroke-dashoffset: 0; stroke: #b0b0b0; stroke-opacity: 0.7; stroke-width: 0.5"/>
     </g>
     <g id="line2d_20">
      <defs>
       <path id="m0df943d8fe" d="M 0 0 
L -3.5 0 
" style="stroke: #000000; stroke-width: 0.8"/>
      </defs>
      <g>
       <use xlink:href="#m0df943d8fe" x="56.9" y="330.390827" style="stroke: #000000; stroke-width: 0.8"/>
      </g>
     </g>
     <g id="text_11">
      <!-- −0.2 -->
      <g transform="translate(25.617187 334.190046) scale(0.1 -0.1)">
       <defs>
        <path id="DejaVuSans-2212" d="M 678 2272 
L 4684 2272 
L 4684 1741 
L 678 1741 
L 678 2272 
z
" transform="scale(0.015625)"/>
        <path id="DejaVuSans-2e" d="M 684 794 
L 1344 794 
L 1344 0 
L 684 0 
L 684 794 
z
" transform="scale(0.015625)"/>
       </defs>
       <use xlink:href="#DejaVuSans-2212"/>
       <use xlink:href="#DejaVuSans-30" transform="translate(83.789062 0)"/>
       <use xlink:href="#DejaVuSans-2e" transform="translate(147.412109 0)"/>
       <use xlink:href="#DejaVuSans-32" transform="translate(179.199219 0)"/>
      </g>
     </g>
    </g>
    <g id="ytick_2">
     <g id="line2d_21">
      <path d="M 56.9 261.098796 
L 853.2 261.098796 
" clip-path="url(#p2ab47bc4ee)" style="fill: none; stroke-dasharray: 1.85,0.8; stroke-dashoffset: 0; stroke: #b0b0b0; stroke-opacity: 0.7; stroke-width: 0.5"/>
     </g>
     <g id="line2d_22">
      <g>
       <use xlink:href="#m0df943d8fe" x="56.9" y="261.098796" style="stroke: #000000; stroke-width: 0.8"/>
      </g>
     </g>
     <g id="text_12">
      <!-- 0.0 -->
      <g transform="translate(33.996875 264.898015) scale(0.1 -0.1)">
       <use xlink:href="#DejaVuSans-30"/>
       <use xlink:href="#DejaVuSans-2e" transform="translate(63.623047 0)"/>
       <use xlink:href="#DejaVuSans-30" transform="translate(95.410156 0)"/>
      </g>
     </g>
    </g>
    <g id="ytick_3">
     <g id="line2d_23">
      <path d="M 56.9 191.806765 
L 853.2 191.806765 
" clip-path="url(#p2ab47bc4ee)" style="fill: none; stroke-dasharray: 1.85,0.8; stroke-dashoffset: 0; stroke: #b0b0b0; stroke-opacity: 0.7; stroke-width: 0.5"/>
     </g>
     <g id="line2d_24">
      <g>
       <use xlink:href="#m0df943d8fe" x="56.9" y="191.806765" style="stroke: #000000; stroke-width: 0.8"/>
      </g>
     </g>
     <g id="text_13">
      <!-- 0.2 -->
      <g transform="translate(33.996875 195.605983) scale(0.1 -0.1)">
       <use xlink:href="#DejaVuSans-30"/>
       <use xlink:href="#DejaVuSans-2e" transform="translate(63.623047 0)"/>
       <use xlink:href="#DejaVuSans-32" transform="translate(95.410156 0)"/>
      </g>
     </g>
    </g>
    <g id="ytick_4">
     <g id="line2d_25">
      <path d="M 56.9 122.514733 
L 853.2 122.514733 
" clip-path="url(#p2ab47bc4ee)" style="fill: none; stroke-dasharray: 1.85,0.8; stroke-dashoffset: 0; stroke: #b0b0b0; stroke-opacity: 0.7; stroke-width: 0.5"/>
     </g>
     <g id="line2d_26">
      <g>
       <use xlink:href="#m0df943d8fe" x="56.9" y="122.514733" style="stroke: #000000; stroke-width: 0.8"/>
      </g>
     </g>
     <g id="text_14">
      <!-- 0.4 -->
      <g transform="translate(33.996875 126.313952) scale(0.1 -0.1)">
       <use xlink:href="#DejaVuSans-30"/>
       <use xlink:href="#DejaVuSans-2e" transform="translate(63.623047 0)"/>
       <use xlink:href="#DejaVuSans-34" transform="translate(95.410156 0)"/>
      </g>
     </g>
    </g>
    <g id="ytick_5">
     <g id="line2d_27">
      <path d="M 56.9 53.222702 
L 853.2 53.222702 
" clip-path="url(#p2ab47bc4ee)" style="fill: none; stroke-dasharray: 1.85,0.8; stroke-dashoffset: 0; stroke: #b0b0b0; stroke-opacity: 0.7; stroke-width: 0.5"/>
     </g>
     <g id="line2d_28">
      <g>
       <use xlink:href="#m0df943d8fe" x="56.9" y="53.222702" style="stroke: #000000; stroke-width: 0.8"/>
      </g>
     </g>
     <g id="text_15">
      <!-- 0.6 -->
      <g transform="translate(33.996875 57.021921) scale(0.1 -0.1)">
       <use xlink:href="#DejaVuSans-30"/>
       <use xlink:href="#DejaVuSans-2e" transform="translate(63.623047 0)"/>
       <use xlink:href="#DejaVuSans-36" transform="translate(95.410156 0)"/>
      </g>
     </g>
    </g>
    <g id="text_16">
     <!-- Spearman IC -->
     <g transform="translate(19.121562 239.438107) rotate(-90) scale(0.12 -0.12)">
      <defs>
       <path id="DejaVuSans-53" d="M 3425 4513 
L 3425 3897 
Q 3066 4069 2747 4153 
Q 2428 4238 2131 4238 
Q 1616 4238 1336 4038 
Q 1056 3838 1056 3469 
Q 1056 3159 1242 3001 
Q 1428 2844 1947 2747 
L 2328 2669 
Q 3034 2534 3370 2195 
Q 3706 1856 3706 1288 
Q 3706 609 3251 259 
Q 2797 -91 1919 -91 
Q 1588 -91 1214 -16 
Q 841 59 441 206 
L 441 856 
Q 825 641 1194 531 
Q 1563 422 1919 422 
Q 2459 422 2753 634 
Q 3047 847 3047 1241 
Q 3047 1584 2836 1778 
Q 2625 1972 2144 2069 
L 1759 2144 
Q 1053 2284 737 2584 
Q 422 2884 422 3419 
Q 422 4038 858 4394 
Q 1294 4750 2059 4750 
Q 2388 4750 2728 4690 
Q 3069 4631 3425 4513 
z
" transform="scale(0.015625)"/>
       <path id="DejaVuSans-70" d="M 1159 525 
L 1159 -1331 
L 581 -1331 
L 581 3500 
L 1159 3500 
L 1159 2969 
Q 1341 3281 1617 3432 
Q 1894 3584 2278 3584 
Q 2916 3584 3314 3078 
Q 3713 2572 3713 1747 
Q 3713 922 3314 415 
Q 2916 -91 2278 -91 
Q 1894 -91 1617 61 
Q 1341 213 1159 525 
z
M 3116 1747 
Q 3116 2381 2855 2742 
Q 2594 3103 2138 3103 
Q 1681 3103 1420 2742 
Q 1159 2381 1159 1747 
Q 1159 1113 1420 752 
Q 1681 391 2138 391 
Q 2594 391 2855 752 
Q 3116 1113 3116 1747 
z
" transform="scale(0.015625)"/>
       <path id="DejaVuSans-6d" d="M 3328 2828 
Q 3544 3216 3844 3400 
Q 4144 3584 4550 3584 
Q 5097 3584 5394 3201 
Q 5691 2819 5691 2113 
L 5691 0 
L 5113 0 
L 5113 2094 
Q 5113 2597 4934 2840 
Q 4756 3084 4391 3084 
Q 3944 3084 3684 2787 
Q 3425 2491 3425 1978 
L 3425 0 
L 2847 0 
L 2847 2094 
Q 2847 2600 2669 2842 
Q 2491 3084 2119 3084 
Q 1678 3084 1418 2786 
Q 1159 2488 1159 1978 
L 1159 0 
L 581 0 
L 581 3500 
L 1159 3500 
L 1159 2956 
Q 1356 3278 1631 3431 
Q 1906 3584 2284 3584 
Q 2666 3584 2933 3390 
Q 3200 3197 3328 2828 
z
" transform="scale(0.015625)"/>
       <path id="DejaVuSans-6e" d="M 3513 2113 
L 3513 0 
L 2938 0 
L 2938 2094 
Q 2938 2591 2744 2837 
Q 2550 3084 2163 3084 
Q 1697 3084 1428 2787 
Q 1159 2491 1159 1978 
L 1159 0 
L 581 0 
L 581 3500 
L 1159 3500 
L 1159 2956 
Q 1366 3272 1645 3428 
Q 1925 3584 2291 3584 
Q 2894 3584 3203 3211 
Q 3513 2838 3513 2113 
z
" transform="scale(0.015625)"/>
       <path id="DejaVuSans-20" transform="scale(0.015625)"/>
       <path id="DejaVuSans-49" d="M 628 4666 
L 1259 4666 
L 1259 0 
L 628 0 
L 628 4666 
z
" transform="scale(0.015625)"/>
       <path id="DejaVuSans-43" d="M 4122 4306 
L 4122 3641 
Q 3803 3938 3442 4084 
Q 3081 4231 2675 4231 
Q 1875 4231 1450 3742 
Q 1025 3253 1025 2328 
Q 1025 1406 1450 917 
Q 1875 428 2675 428 
Q 3081 428 3442 575 
Q 3803 722 4122 1019 
L 4122 359 
Q 3791 134 3420 21 
Q 3050 -91 2638 -91 
Q 1578 -91 968 557 
Q 359 1206 359 2328 
Q 359 3453 968 4101 
Q 1578 4750 2638 4750 
Q 3056 4750 3426 4639 
Q 3797 4528 4122 4306 
z
" transform="scale(0.015625)"/>
      </defs>
      <use xlink:href="#DejaVuSans-53"/>
      <use xlink:href="#DejaVuSans-70" transform="translate(63.476562 0)"/>
      <use xlink:href="#DejaVuSans-65" transform="translate(126.953125 0)"/>
      <use xlink:href="#DejaVuSans-61" transform="translate(188.476562 0)"/>
      <use xlink:href="#DejaVuSans-72" transform="translate(249.755859 0)"/>
      <use xlink:href="#DejaVuSans-6d" transform="translate(289.119141 0)"/>
      <use xlink:href="#DejaVuSans-61" transform="translate(386.53125 0)"/>
      <use xlink:href="#DejaVuSans-6e" transform="translate(447.810547 0)"/>
      <use xlink:href="#DejaVuSans-20" transform="translate(511.189453 0)"/>
      <use xlink:href="#DejaVuSans-49" transform="translate(542.976562 0)"/>
      <use xlink:href="#DejaVuSans-43" transform="translate(572.46875 0)"/>
     </g>
    </g>
   </g>
   <g id="line2d_29">
    <path d="M 93.095455 186.372096 
L 100.618479 185.796781 
L 107.898825 179.570196 
L 115.42185 207.73603 
L 122.944874 288.51053 
L 129.982542 233.811255 
L 137.505566 264.116875 
L 144.785913 256.137546 
L 152.308937 191.915524 
L 159.589283 293.438139 
L 167.112308 219.51409 
L 174.635332 187.176163 
L 181.915678 263.62015 
L 189.438703 204.433526 
L 196.719049 306.183013 
L 204.242073 193.318359 
L 211.765098 222.324777 
L 218.560087 216.91242 
L 226.083112 227.240324 
L 233.363458 263.178837 
L 240.886482 273.02293 
L 248.166829 223.420548 
L 255.689853 231.357239 
L 263.212878 256.279651 
L 270.493224 251.000949 
L 278.016248 248.556978 
L 285.296594 285.249399 
L 292.819619 268.149122 
L 300.342643 254.16912 
L 307.137633 202.411727 
L 314.660657 222.702023 
L 321.941004 225.211768 
L 329.464028 236.358784 
L 336.744374 252.660198 
L 344.267399 234.043364 
L 351.790423 260.441477 
L 359.070769 234.702385 
L 366.593794 238.841499 
L 373.87414 291.492484 
L 381.397164 240.193072 
L 388.920189 230.730649 
L 395.715178 244.090824 
L 403.238203 248.199452 
L 410.518549 220.06681 
L 418.041573 168.584981 
L 425.32192 220.408173 
L 432.844944 209.225757 
L 440.367968 287.048322 
L 447.648315 233.322762 
L 455.171339 272.720563 
L 462.451685 322.194681 
L 469.97471 218.268577 
L 477.497734 264.832802 
L 484.535402 302.712667 
L 492.058427 231.411758 
L 499.338773 260.758651 
L 506.861797 222.173626 
L 514.142143 284.223646 
L 521.665168 259.939589 
L 529.188192 358.444227 
L 536.468538 335.00807 
L 543.991563 261.199373 
L 551.271909 286.054495 
L 558.794933 290.694427 
L 566.317958 185.41368 
L 573.112948 166.750391 
L 580.635972 237.557339 
L 587.916318 224.541665 
L 595.439343 199.616499 
L 602.719689 233.74874 
L 610.242713 210.99937 
L 617.765738 172.29871 
L 625.046084 248.514764 
L 632.569108 140.573731 
L 639.849454 203.902492 
L 647.372479 240.445317 
L 654.895503 206.965171 
L 661.690493 137.900735 
L 669.213518 207.227854 
L 676.493864 293.136009 
L 684.016888 220.076122 
L 691.297234 269.864052 
L 698.820259 182.386747 
L 706.343283 132.627225 
L 713.623629 206.540708 
L 721.146654 230.169784 
L 728.427 307.834466 
L 735.950024 228.366598 
L 743.473049 244.480841 
L 750.268039 244.268574 
L 757.791063 246.365829 
L 765.071409 225.039232 
L 772.594434 222.60759 
L 779.87478 167.695393 
L 787.397804 180.283696 
L 794.920829 167.91469 
L 802.201175 257.830381 
L 809.724199 277.063912 
L 817.004545 230.124754 
" clip-path="url(#p2ab47bc4ee)" style="fill: none; stroke: #0173b2; stroke-width: 2; stroke-linecap: square"/>
   </g>
   <g id="line2d_30">
    <path d="M 93.095455 329.38543 
L 100.618479 203.616095 
L 107.898825 202.214526 
L 115.42185 235.577621 
L 122.944874 311.547917 
L 129.982542 270.346968 
L 137.505566 271.223375 
L 144.785913 233.117819 
L 152.308937 222.802094 
L 159.589283 285.702727 
L 167.112308 238.384917 
L 174.635332 243.024631 
L 181.915678 214.920045 
L 189.438703 232.740229 
L 196.719049 221.562464 
L 204.242073 270.623831 
L 211.765098 218.00122 
L 218.560087 238.379051 
L 226.083112 244.435094 
L 233.363458 249.529173 
L 240.886482 266.42762 
L 248.166829 213.399754 
L 255.689853 228.722171 
L 263.212878 248.053434 
L 270.493224 232.783529 
L 278.016248 237.78652 
L 285.296594 225.561501 
L 292.819619 245.513289 
L 300.342643 246.39776 
L 307.137633 259.197791 
L 314.660657 271.398622 
L 321.941004 240.108666 
L 329.464028 227.756924 
L 336.744374 238.262486 
L 344.267399 263.207075 
L 351.790423 247.060002 
L 359.070769 253.472345 
L 366.593794 257.004786 
L 373.87414 320.327622 
L 381.397164 252.31635 
L 388.920189 226.391624 
L 395.715178 254.327892 
L 403.238203 249.820809 
L 410.518549 217.15806 
L 418.041573 125.556586 
L 425.32192 185.363283 
L 432.844944 195.467567 
L 440.367968 281.655165 
L 447.648315 271.047454 
L 455.171339 262.855703 
L 462.451685 310.451207 
L 469.97471 271.796782 
L 477.497734 267.032098 
L 484.535402 281.634666 
L 492.058427 250.626819 
L 499.338773 256.16055 
L 506.861797 257.73214 
L 514.142143 279.937653 
L 521.665168 250.084573 
L 529.188192 356.623329 
L 536.468538 321.138431 
L 543.991563 268.345275 
L 551.271909 300.678813 
L 558.794933 276.611439 
L 566.317958 194.561802 
L 573.112948 247.760715 
L 580.635972 261.062525 
L 587.916318 235.341939 
L 595.439343 272.674465 
L 602.719689 218.387881 
L 610.242713 233.486353 
L 617.765738 205.086948 
L 625.046084 240.303508 
L 632.569108 177.366758 
L 639.849454 186.381991 
L 647.372479 263.995844 
L 654.895503 226.092946 
L 661.690493 208.302621 
L 669.213518 209.350176 
L 676.493864 284.325151 
L 684.016888 231.344293 
L 691.297234 232.651328 
L 698.820259 204.490372 
L 706.343283 198.113404 
L 713.623629 226.943229 
L 721.146654 225.588635 
L 728.427 284.893342 
L 735.950024 298.23044 
L 743.473049 238.089579 
L 750.268039 250.898842 
L 757.791063 241.505457 
L 765.071409 243.19726 
L 772.594434 235.520334 
L 779.87478 207.145506 
L 787.397804 220.482763 
L 794.920829 207.933498 
L 802.201175 248.67884 
L 809.724199 269.249207 
L 817.004545 185.053201 
" clip-path="url(#p2ab47bc4ee)" style="fill: none; stroke: #de8f05; stroke-width: 2; stroke-linecap: square"/>
   </g>
   <g id="line2d_31">
    <path d="M 93.095455 100.56153 
L 100.618479 168.741174 
L 107.898825 183.089325 
L 115.42185 217.237811 
L 122.944874 303.628534 
L 129.982542 224.373115 
L 137.505566 244.191727 
L 144.785913 235.723659 
L 152.308937 214.41065 
L 159.589283 321.281479 
L 167.112308 214.04645 
L 174.635332 165.846975 
L 181.915678 318.800221 
L 189.438703 211.822108 
L 196.719049 283.333653 
L 204.242073 180.94875 
L 211.765098 225.155754 
L 218.560087 210.056541 
L 226.083112 208.056126 
L 233.363458 261.692456 
L 240.886482 271.055186 
L 248.166829 237.567449 
L 255.689853 213.403413 
L 263.212878 270.052101 
L 270.493224 246.575242 
L 278.016248 265.094393 
L 285.296594 243.83451 
L 292.819619 272.348584 
L 300.342643 264.043888 
L 307.137633 190.910739 
L 314.660657 231.383936 
L 321.941004 219.901797 
L 329.464028 224.795992 
L 336.744374 216.165155 
L 344.267399 243.956689 
L 351.790423 252.364249 
L 359.070769 211.87697 
L 366.593794 218.264099 
L 373.87414 319.283654 
L 381.397164 224.997359 
L 388.920189 230.795644 
L 395.715178 262.859476 
L 403.238203 270.333884 
L 410.518549 207.638731 
L 418.041573 165.363382 
L 425.32192 209.768522 
L 432.844944 197.601777 
L 440.367968 244.478949 
L 447.648315 262.74239 
L 455.171339 281.54127 
L 462.451685 294.103541 
L 469.97471 172.581001 
L 477.497734 254.976469 
L 484.535402 300.31961 
L 492.058427 216.018588 
L 499.338773 250.101631 
L 506.861797 223.67561 
L 514.142143 293.99599 
L 521.665168 247.308746 
L 529.188192 317.988681 
L 536.468538 354.749476 
L 543.991563 249.886251 
L 551.271909 281.539283 
L 558.794933 334.923012 
L 566.317958 200.05111 
L 573.112948 112.245329 
L 580.635972 211.346156 
L 587.916318 223.903885 
L 595.439343 244.706359 
L 602.719689 280.442879 
L 610.242713 207.205509 
L 617.765738 162.761934 
L 625.046084 288.01581 
L 632.569108 119.737193 
L 639.849454 167.933763 
L 647.372479 215.653567 
L 654.895503 213.59104 
L 661.690493 108.599219 
L 669.213518 193.61717 
L 676.493864 304.150323 
L 684.016888 220.534272 
L 691.297234 262.486524 
L 698.820259 167.608414 
L 706.343283 122.543082 
L 713.623629 150.108611 
L 721.146654 209.431297 
L 728.427 324.656993 
L 735.950024 102.401429 
L 743.473049 223.124266 
L 750.268039 261.893079 
L 757.791063 264.179011 
L 765.071409 206.41672 
L 772.594434 227.211264 
L 779.87478 175.361107 
L 787.397804 180.528382 
L 794.920829 157.263804 
L 802.201175 311.522719 
L 809.724199 280.050612 
L 817.004545 224.684793 
" clip-path="url(#p2ab47bc4ee)" style="fill: none; stroke: #029e73; stroke-width: 2; stroke-linecap: square"/>
   </g>
   <g id="line2d_32">
    <path d="M 93.095455 120.583996 
L 100.618479 171.828689 
L 107.898825 199.386886 
L 115.42185 164.250002 
L 122.944874 254.690335 
L 129.982542 250.052196 
L 137.505566 296.98542 
L 144.785913 265.01833 
L 152.308937 274.666291 
L 159.589283 277.799179 
L 167.112308 223.335722 
L 174.635332 227.161012 
L 181.915678 302.223866 
L 189.438703 220.223442 
L 196.719049 247.663343 
L 204.242073 245.501442 
L 211.765098 280.580173 
L 218.560087 223.534023 
L 226.083112 258.603586 
L 233.363458 268.651178 
L 240.886482 245.768701 
L 248.166829 258.021692 
L 255.689853 228.403967 
L 263.212878 191.151482 
L 270.493224 227.094507 
L 278.016248 264.192591 
L 285.296594 249.755139 
L 292.819619 281.189461 
L 300.342643 283.778092 
L 307.137633 213.12678 
L 314.660657 312.349207 
L 321.941004 242.25433 
L 329.464028 209.786179 
L 336.744374 252.918126 
L 344.267399 257.409267 
L 351.790423 258.81489 
L 359.070769 242.087493 
L 366.593794 228.899184 
L 373.87414 325.813185 
L 381.397164 224.344771 
L 388.920189 253.623256 
L 395.715178 254.611346 
L 403.238203 283.440704 
L 410.518549 226.477546 
L 418.041573 194.841705 
L 425.32192 251.384919 
L 432.844944 211.020097 
L 440.367968 230.144513 
L 447.648315 290.308157 
L 455.171339 292.660434 
L 462.451685 303.870054 
L 469.97471 259.279792 
L 477.497734 323.973371 
L 484.535402 306.169099 
L 492.058427 225.268392 
L 499.338773 261.013472 
L 506.861797 249.256477 
L 514.142143 300.341474 
L 521.665168 264.099456 
L 529.188192 296.413165 
L 536.468538 300.205947 
L 543.991563 238.511816 
L 551.271909 342.201768 
L 558.794933 257.134914 
L 566.317958 126.050345 
L 573.112948 132.176081 
L 580.635972 244.261017 
L 587.916318 239.460585 
L 595.439343 241.447764 
L 602.719689 243.932411 
L 610.242713 203.134945 
L 617.765738 137.549639 
L 625.046084 218.867292 
L 632.569108 102.32917 
L 639.849454 175.992886 
L 647.372479 246.511601 
L 654.895503 190.392651 
L 661.690493 102.098318 
L 669.213518 230.241058 
L 676.493864 310.573903 
L 684.016888 245.972548 
L 691.297234 250.200764 
L 698.820259 169.244543 
L 706.343283 117.035278 
L 713.623629 178.171142 
L 721.146654 206.947069 
L 728.427 339.020509 
L 735.950024 199.12937 
L 743.473049 246.302258 
L 750.268039 266.72991 
L 757.791063 253.804182 
L 765.071409 217.824988 
L 772.594434 287.957304 
L 779.87478 237.459584 
L 787.397804 180.871988 
L 794.920829 145.454245 
L 802.201175 268.265089 
L 809.724199 302.804018 
L 817.004545 235.994852 
" clip-path="url(#p2ab47bc4ee)" style="fill: none; stroke: #d55e00; stroke-width: 2; stroke-linecap: square"/>
   </g>
   <g id="line2d_33">
    <path d="M 93.095455 43.354487 
L 100.618479 187.083823 
L 107.898825 209.141007 
L 115.42185 234.414951 
L 122.944874 303.288176 
L 129.982542 233.024373 
L 137.505566 265.878321 
L 144.785913 243.304517 
L 152.308937 234.589757 
L 159.589283 267.125766 
L 167.112308 216.248949 
L 174.635332 212.637935 
L 181.915678 268.73434 
L 189.438703 215.222286 
L 196.719049 289.616863 
L 204.242073 230.230113 
L 211.765098 224.348511 
L 218.560087 224.806186 
L 226.083112 238.166647 
L 233.363458 268.652722 
L 240.886482 231.11508 
L 248.166829 245.112642 
L 255.689853 230.163558 
L 263.212878 217.993211 
L 270.493224 226.031111 
L 278.016248 258.864483 
L 285.296594 236.821684 
L 292.819619 252.676114 
L 300.342643 263.161032 
L 307.137633 196.664426 
L 314.660657 240.528425 
L 321.941004 242.829382 
L 329.464028 191.911121 
L 336.744374 224.279489 
L 344.267399 233.689789 
L 351.790423 280.372733 
L 359.070769 241.299617 
L 366.593794 234.604486 
L 373.87414 315.356641 
L 381.397164 260.071142 
L 388.920189 236.776032 
L 395.715178 253.689479 
L 403.238203 279.08837 
L 410.518549 240.007966 
L 418.041573 231.537514 
L 425.32192 200.140225 
L 432.844944 194.241933 
L 440.367968 206.566615 
L 447.648315 242.794753 
L 455.171339 268.357225 
L 462.451685 284.949504 
L 469.97471 237.103333 
L 477.497734 268.870473 
L 484.535402 311.305785 
L 492.058427 266.489985 
L 499.338773 254.65635 
L 506.861797 211.329618 
L 514.142143 284.726289 
L 521.665168 247.055904 
L 529.188192 318.546368 
L 536.468538 333.687074 
L 543.991563 233.261684 
L 551.271909 281.331828 
L 558.794933 306.193073 
L 566.317958 182.693309 
L 573.112948 138.548641 
L 580.635972 252.123238 
L 587.916318 226.146549 
L 595.439343 213.768652 
L 602.719689 224.211727 
L 610.242713 222.04294 
L 617.765738 191.795624 
L 625.046084 246.655259 
L 632.569108 137.120629 
L 639.849454 159.499069 
L 647.372479 261.809203 
L 654.895503 235.580011 
L 661.690493 114.228831 
L 669.213518 211.036308 
L 676.493864 315.57372 
L 684.016888 256.404544 
L 691.297234 238.764456 
L 698.820259 169.864396 
L 706.343283 126.309449 
L 713.623629 244.282937 
L 721.146654 202.382687 
L 728.427 301.788192 
L 735.950024 235.675739 
L 743.473049 240.293823 
L 750.268039 269.484212 
L 757.791063 266.428079 
L 765.071409 218.114322 
L 772.594434 215.062056 
L 779.87478 172.443052 
L 787.397804 182.634404 
L 794.920829 249.311519 
L 802.201175 246.644693 
L 809.724199 269.370385 
L 817.004545 217.119452 
" clip-path="url(#p2ab47bc4ee)" style="fill: none; stroke: #cc78bc; stroke-width: 2; stroke-linecap: square"/>
   </g>
   <g id="line2d_34">
    <path d="M 56.9 261.098796 
L 853.2 261.098796 
" clip-path="url(#p2ab47bc4ee)" style="fill: none; stroke-dasharray: 3.7,1.6; stroke-dashoffset: 0; stroke: #000000"/>
   </g>
   <g id="patch_3">
    <path d="M 56.9 374.198714 
L 56.9 27.6 
" style="fill: none; stroke: #000000; stroke-width: 0.8; stroke-linejoin: miter; stroke-linecap: square"/>
   </g>
   <g id="patch_4">
    <path d="M 853.2 374.198714 
L 853.2 27.6 
" style="fill: none; stroke: #000000; stroke-width: 0.8; stroke-linejoin: miter; stroke-linecap: square"/>
   </g>
   <g id="patch_5">
    <path d="M 56.9 374.198714 
L 853.2 374.198714 
" style="fill: none; stroke: #000000; stroke-width: 0.8; stroke-linejoin: miter; stroke-linecap: square"/>
   </g>
   <g id="patch_6">
    <path d="M 56.9 27.6 
L 853.2 27.6 
" style="fill: none; stroke: #000000; stroke-width: 0.8; stroke-linejoin: miter; stroke-linecap: square"/>
   </g>
   <g id="text_17">
    <!-- Information Coefficient Over Time (Horizon 1) -->
    <g transform="translate(295.129531 21.6) scale(0.14 -0.14)">
     <defs>
      <path id="DejaVuSans-66" d="M 2375 4863 
L 2375 4384 
L 1825 4384 
Q 1516 4384 1395 4259 
Q 1275 4134 1275 3809 
L 1275 3500 
L 2222 3500 
L 2222 3053 
L 1275 3053 
L 1275 0 
L 697 0 
L 697 3053 
L 147 3053 
L 147 3500 
L 697 3500 
L 697 3744 
Q 697 4328 969 4595 
Q 1241 4863 1831 4863 
L 2375 4863 
z
" transform="scale(0.015625)"/>
      <path id="DejaVuSans-6f" d="M 1959 3097 
Q 1497 3097 1228 2736 
Q 959 2375 959 1747 
Q 959 1119 1226 758 
Q 1494 397 1959 397 
Q 2419 397 2687 759 
Q 2956 1122 2956 1747 
Q 2956 2369 2687 2733 
Q 2419 3097 1959 3097 
z
M 1959 3584 
Q 2709 3584 3137 3096 
Q 3566 2609 3566 1747 
Q 3566 888 3137 398 
Q 2709 -91 1959 -91 
Q 1206 -91 779 398 
Q 353 888 353 1747 
Q 353 2609 779 3096 
Q 1206 3584 1959 3584 
z
" transform="scale(0.015625)"/>
      <path id="DejaVuSans-69" d="M 603 3500 
L 1178 3500 
L 1178 0 
L 603 0 
L 603 3500 
z
M 603 4863 
L 1178 4863 
L 1178 4134 
L 603 4134 
L 603 4863 
z
" transform="scale(0.015625)"/>
      <path id="DejaVuSans-63" d="M 3122 3366 
L 3122 2828 
Q 2878 2963 2633 3030 
Q 2388 3097 2138 3097 
Q 1578 3097 1268 2742 
Q 959 2388 959 1747 
Q 959 1106 1268 751 
Q 1578 397 2138 397 
Q 2388 397 2633 464 
Q 2878 531 3122 666 
L 3122 134 
Q 2881 22 2623 -34 
Q 2366 -91 2075 -91 
Q 1284 -91 818 406 
Q 353 903 353 1747 
Q 353 2603 823 3093 
Q 1294 3584 2113 3584 
Q 2378 3584 2631 3529 
Q 2884 3475 3122 3366 
z
" transform="scale(0.015625)"/>
      <path id="DejaVuSans-4f" d="M 2522 4238 
Q 1834 4238 1429 3725 
Q 1025 3213 1025 2328 
Q 1025 1447 1429 934 
Q 1834 422 2522 422 
Q 3209 422 3611 934 
Q 4013 1447 4013 2328 
Q 4013 3213 3611 3725 
Q 3209 4238 2522 4238 
z
M 2522 4750 
Q 3503 4750 4090 4092 
Q 4678 3434 4678 2328 
Q 4678 1225 4090 567 
Q 3503 -91 2522 -91 
Q 1538 -91 948 565 
Q 359 1222 359 2328 
Q 359 3434 948 4092 
Q 1538 4750 2522 4750 
z
" transform="scale(0.015625)"/>
      <path id="DejaVuSans-76" d="M 191 3500 
L 800 3500 
L 1894 563 
L 2988 3500 
L 3597 3500 
L 2284 0 
L 1503 0 
L 191 3500 
z
" transform="scale(0.015625)"/>
      <path id="DejaVuSans-54" d="M -19 4666 
L 3928 4666 
L 3928 4134 
L 2272 4134 
L 2272 0 
L 1638 0 
L 1638 4134 
L -19 4134 
L -19 4666 
z
" transform="scale(0.015625)"/>
      <path id="DejaVuSans-28" d="M 1984 4856 
Q 1566 4138 1362 3434 
Q 1159 2731 1159 2009 
Q 1159 1288 1364 580 
Q 1569 -128 1984 -844 
L 1484 -844 
Q 1016 -109 783 600 
Q 550 1309 550 2009 
Q 550 2706 781 3412 
Q 1013 4119 1484 4856 
L 1984 4856 
z
" transform="scale(0.015625)"/>
      <path id="DejaVuSans-48" d="M 628 4666 
L 1259 4666 
L 1259 2753 
L 3553 2753 
L 3553 4666 
L 4184 4666 
L 4184 0 
L 3553 0 
L 3553 2222 
L 1259 2222 
L 1259 0 
L 628 0 
L 628 4666 
z
" transform="scale(0.015625)"/>
      <path id="DejaVuSans-7a" d="M 353 3500 
L 3084 3500 
L 3084 2975 
L 922 459 
L 3084 459 
L 3084 0 
L 275 0 
L 275 525 
L 2438 3041 
L 353 3041 
L 353 3500 
z
" transform="scale(0.015625)"/>
      <path id="DejaVuSans-29" d="M 513 4856 
L 1013 4856 
Q 1481 4119 1714 3412 
Q 1947 2706 1947 2009 
Q 1947 1309 1714 600 
Q 1481 -109 1013 -844 
L 513 -844 
Q 928 -128 1133 580 
Q 1338 1288 1338 2009 
Q 1338 2731 1133 3434 
Q 928 4138 513 4856 
z
" transform="scale(0.015625)"/>
     </defs>
     <use xlink:href="#DejaVuSans-49"/>
     <use xlink:href="#DejaVuSans-6e" transform="translate(29.492188 0)"/>
     <use xlink:href="#DejaVuSans-66" transform="translate(92.871094 0)"/>
     <use xlink:href="#DejaVuSans-6f" transform="translate(128.076172 0)"/>
     <use xlink:href="#DejaVuSans-72" transform="translate(189.257812 0)"/>
     <use xlink:href="#DejaVuSans-6d" transform="translate(228.621094 0)"/>
     <use xlink:href="#DejaVuSans-61" transform="translate(326.033203 0)"/>
     <use xlink:href="#DejaVuSans-74" transform="translate(387.3125 0)"/>
     <use xlink:href="#DejaVuSans-69" transform="translate(426.521484 0)"/>
     <use xlink:href="#DejaVuSans-6f" transform="translate(454.304688 0)"/>
     <use xlink:href="#DejaVuSans-6e" transform="translate(515.486328 0)"/>
     <use xlink:href="#DejaVuSans-20" transform="translate(578.865234 0)"/>
     <use xlink:href="#DejaVuSans-43" transform="translate(610.652344 0)"/>
     <use xlink:href="#DejaVuSans-6f" transform="translate(680.476562 0)"/>
     <use xlink:href="#DejaVuSans-65" transform="translate(741.658203 0)"/>
     <use xlink:href="#DejaVuSans-66" transform="translate(803.181641 0)"/>
     <use xlink:href="#DejaVuSans-66" transform="translate(838.386719 0)"/>
     <use xlink:href="#DejaVuSans-69" transform="translate(873.591797 0)"/>
     <use xlink:href="#DejaVuSans-63" transform="translate(901.375 0)"/>
     <use xlink:href="#DejaVuSans-69" transform="translate(956.355469 0)"/>
     <use xlink:href="#DejaVuSans-65" transform="translate(984.138672 0)"/>
     <use xlink:href="#DejaVuSans-6e" transform="translate(1045.662109 0)"/>
     <use xlink:href="#DejaVuSans-74" transform="translate(1109.041016 0)"/>
     <use xlink:href="#DejaVuSans-20" transform="translate(1148.25 0)"/>
     <use xlink:href="#DejaVuSans-4f" transform="translate(1180.037109 0)"/>
     <use xlink:href="#DejaVuSans-76" transform="translate(1258.748047 0)"/>
     <use xlink:href="#DejaVuSans-65" transform="translate(1317.927734 0)"/>
     <use xlink:href="#DejaVuSans-72" transform="translate(1379.451172 0)"/>
     <use xlink:href="#DejaVuSans-20" transform="translate(1420.564453 0)"/>
     <use xlink:href="#DejaVuSans-54" transform="translate(1452.351562 0)"/>
     <use xlink:href="#DejaVuSans-69" transform="translate(1510.310547 0)"/>
     <use xlink:href="#DejaVuSans-6d" transform="translate(1538.09375 0)"/>
     <use xlink:href="#DejaVuSans-65" transform="translate(1635.505859 0)"/>
     <use xlink:href="#DejaVuSans-20" transform="translate(1697.029297 0)"/>
     <use xlink:href="#DejaVuSans-28" transform="translate(1728.816406 0)"/>
     <use xlink:href="#DejaVuSans-48" transform="translate(1767.830078 0)"/>
     <use xlink:href="#DejaVuSans-6f" transform="translate(1843.025391 0)"/>
     <use xlink:href="#DejaVuSans-72" transform="translate(1904.207031 0)"/>
     <use xlink:href="#DejaVuSans-69" transform="translate(1945.320312 0)"/>
     <use xlink:href="#DejaVuSans-7a" transform="translate(1973.103516 0)"/>
     <use xlink:href="#DejaVuSans-6f" transform="translate(2025.59375 0)"/>
     <use xlink:href="#DejaVuSans-6e" transform="translate(2086.775391 0)"/>
     <use xlink:href="#DejaVuSans-20" transform="translate(2150.154297 0)"/>
     <use xlink:href="#DejaVuSans-31" transform="translate(2181.941406 0)"/>
     <use xlink:href="#DejaVuSans-29" transform="translate(2245.564453 0)"/>
    </g>
   </g>
   <g id="legend_1">
    <g id="text_18">
     <!-- Metrics -->
     <g transform="translate(436.900781 44.198438) scale(0.1 -0.1)">
      <defs>
       <path id="DejaVuSans-4d" d="M 628 4666 
L 1569 4666 
L 2759 1491 
L 3956 4666 
L 4897 4666 
L 4897 0 
L 4281 0 
L 4281 4097 
L 3078 897 
L 2444 897 
L 1241 4097 
L 1241 0 
L 628 0 
L 628 4666 
z
" transform="scale(0.015625)"/>
       <path id="DejaVuSans-73" d="M 2834 3397 
L 2834 2853 
Q 2591 2978 2328 3040 
Q 2066 3103 1784 3103 
Q 1356 3103 1142 2972 
Q 928 2841 928 2578 
Q 928 2378 1081 2264 
Q 1234 2150 1697 2047 
L 1894 2003 
Q 2506 1872 2764 1633 
Q 3022 1394 3022 966 
Q 3022 478 2636 193 
Q 2250 -91 1575 -91 
Q 1294 -91 989 -36 
Q 684 19 347 128 
L 347 722 
Q 666 556 975 473 
Q 1284 391 1588 391 
Q 1994 391 2212 530 
Q 2431 669 2431 922 
Q 2431 1156 2273 1281 
Q 2116 1406 1581 1522 
L 1381 1569 
Q 847 1681 609 1914 
Q 372 2147 372 2553 
Q 372 3047 722 3315 
Q 1072 3584 1716 3584 
Q 2034 3584 2315 3537 
Q 2597 3491 2834 3397 
z
" transform="scale(0.015625)"/>
      </defs>
      <use xlink:href="#DejaVuSans-4d"/>
      <use xlink:href="#DejaVuSans-65" transform="translate(86.279297 0)"/>
      <use xlink:href="#DejaVuSans-74" transform="translate(147.802734 0)"/>
      <use xlink:href="#DejaVuSans-72" transform="translate(187.011719 0)"/>
      <use xlink:href="#DejaVuSans-69" transform="translate(228.125 0)"/>
      <use xlink:href="#DejaVuSans-63" transform="translate(255.908203 0)"/>
      <use xlink:href="#DejaVuSans-73" transform="translate(310.888672 0)"/>
     </g>
    </g>
    <g id="line2d_35">
     <path d="M 375.916406 55.376563 
L 385.916406 55.376563 
L 395.916406 55.376563 
" style="fill: none; stroke: #0173b2; stroke-width: 2; stroke-linecap: square"/>
    </g>
    <g id="text_19">
     <!-- roe -->
     <g transform="translate(403.916406 58.876563) scale(0.1 -0.1)">
      <use xlink:href="#DejaVuSans-72"/>
      <use xlink:href="#DejaVuSans-6f" transform="translate(38.863281 0)"/>
      <use xlink:href="#DejaVuSans-65" transform="translate(100.044922 0)"/>
     </g>
    </g>
    <g id="line2d_36">
     <path d="M 375.916406 70.054688 
L 385.916406 70.054688 
L 395.916406 70.054688 
" style="fill: none; stroke: #de8f05; stroke-width: 2; stroke-linecap: square"/>
    </g>
    <g id="text_20">
     <!-- roic -->
     <g transform="translate(403.916406 73.554688) scale(0.1 -0.1)">
      <use xlink:href="#DejaVuSans-72"/>
      <use xlink:href="#DejaVuSans-6f" transform="translate(38.863281 0)"/>
      <use xlink:href="#DejaVuSans-69" transform="translate(100.044922 0)"/>
      <use xlink:href="#DejaVuSans-63" transform="translate(127.828125 0)"/>
     </g>
    </g>
    <g id="line2d_37">
     <path d="M 375.916406 84.732813 
L 385.916406 84.732813 
L 395.916406 84.732813 
" style="fill: none; stroke: #029e73; stroke-width: 2; stroke-linecap: square"/>
    </g>
    <g id="text_21">
     <!-- roa -->
     <g transform="translate(403.916406 88.232813) scale(0.1 -0.1)">
      <use xlink:href="#DejaVuSans-72"/>
      <use xlink:href="#DejaVuSans-6f" transform="translate(38.863281 0)"/>
      <use xlink:href="#DejaVuSans-61" transform="translate(100.044922 0)"/>
     </g>
    </g>
    <g id="line2d_38">
     <path d="M 375.916406 99.410938 
L 385.916406 99.410938 
L 395.916406 99.410938 
" style="fill: none; stroke: #d55e00; stroke-width: 2; stroke-linecap: square"/>
    </g>
    <g id="text_22">
     <!-- ebitda -->
     <g transform="translate(403.916406 102.910938) scale(0.1 -0.1)">
      <defs>
       <path id="DejaVuSans-62" d="M 3116 1747 
Q 3116 2381 2855 2742 
Q 2594 3103 2138 3103 
Q 1681 3103 1420 2742 
Q 1159 2381 1159 1747 
Q 1159 1113 1420 752 
Q 1681 391 2138 391 
Q 2594 391 2855 752 
Q 3116 1113 3116 1747 
z
M 1159 2969 
Q 1341 3281 1617 3432 
Q 1894 3584 2278 3584 
Q 2916 3584 3314 3078 
Q 3713 2572 3713 1747 
Q 3713 922 3314 415 
Q 2916 -91 2278 -91 
Q 1894 -91 1617 61 
Q 1341 213 1159 525 
L 1159 0 
L 581 0 
L 581 4863 
L 1159 4863 
L 1159 2969 
z
" transform="scale(0.015625)"/>
       <path id="DejaVuSans-64" d="M 2906 2969 
L 2906 4863 
L 3481 4863 
L 3481 0 
L 2906 0 
L 2906 525 
Q 2725 213 2448 61 
Q 2172 -91 1784 -91 
Q 1150 -91 751 415 
Q 353 922 353 1747 
Q 353 2572 751 3078 
Q 1150 3584 1784 3584 
Q 2172 3584 2448 3432 
Q 2725 3281 2906 2969 
z
M 947 1747 
Q 947 1113 1208 752 
Q 1469 391 1925 391 
Q 2381 391 2643 752 
Q 2906 1113 2906 1747 
Q 2906 2381 2643 2742 
Q 2381 3103 1925 3103 
Q 1469 3103 1208 2742 
Q 947 2381 947 1747 
z
" transform="scale(0.015625)"/>
      </defs>
      <use xlink:href="#DejaVuSans-65"/>
      <use xlink:href="#DejaVuSans-62" transform="translate(61.523438 0)"/>
      <use xlink:href="#DejaVuSans-69" transform="translate(125 0)"/>
      <use xlink:href="#DejaVuSans-74" transform="translate(152.783203 0)"/>
      <use xlink:href="#DejaVuSans-64" transform="translate(191.992188 0)"/>
      <use xlink:href="#DejaVuSans-61" transform="translate(255.46875 0)"/>
     </g>
    </g>
    <g id="line2d_39">
     <path d="M 375.916406 114.089063 
L 385.916406 114.089063 
L 395.916406 114.089063 
" style="fill: none; stroke: #cc78bc; stroke-width: 2; stroke-linecap: square"/>
    </g>
    <g id="text_23">
     <!-- ebitda_minus_capex_to_ic -->
     <g transform="translate(403.916406 117.589063) scale(0.1 -0.1)">
      <defs>
       <path id="DejaVuSans-5f" d="M 3263 -1063 
L 3263 -1509 
L -63 -1509 
L -63 -1063 
L 3263 -1063 
z
" transform="scale(0.015625)"/>
       <path id="DejaVuSans-78" d="M 3513 3500 
L 2247 1797 
L 3578 0 
L 2900 0 
L 1881 1375 
L 863 0 
L 184 0 
L 1544 1831 
L 300 3500 
L 978 3500 
L 1906 2253 
L 2834 3500 
L 3513 3500 
z
" transform="scale(0.015625)"/>
      </defs>
      <use xlink:href="#DejaVuSans-65"/>
      <use xlink:href="#DejaVuSans-62" transform="translate(61.523438 0)"/>
      <use xlink:href="#DejaVuSans-69" transform="translate(125 0)"/>
      <use xlink:href="#DejaVuSans-74" transform="translate(152.783203 0)"/>
      <use xlink:href="#DejaVuSans-64" transform="translate(191.992188 0)"/>
      <use xlink:href="#DejaVuSans-61" transform="translate(255.46875 0)"/>
      <use xlink:href="#DejaVuSans-5f" transform="translate(316.748047 0)"/>
      <use xlink:href="#DejaVuSans-6d" transform="translate(366.748047 0)"/>
      <use xlink:href="#DejaVuSans-69" transform="translate(464.160156 0)"/>
      <use xlink:href="#DejaVuSans-6e" transform="translate(491.943359 0)"/>
      <use xlink:href="#DejaVuSans-75" transform="translate(555.322266 0)"/>
      <use xlink:href="#DejaVuSans-73" transform="translate(618.701172 0)"/>
      <use xlink:href="#DejaVuSans-5f" transform="translate(670.800781 0)"/>
      <use xlink:href="#DejaVuSans-63" transform="translate(720.800781 0)"/>
      <use xlink:href="#DejaVuSans-61" transform="translate(775.78125 0)"/>
      <use xlink:href="#DejaVuSans-70" transform="translate(837.060547 0)"/>
      <use xlink:href="#DejaVuSans-65" transform="translate(900.537109 0)"/>
      <use xlink:href="#DejaVuSans-78" transform="translate(960.310547 0)"/>
      <use xlink:href="#DejaVuSans-5f" transform="translate(1019.490234 0)"/>
      <use xlink:href="#DejaVuSans-74" transform="translate(1069.490234 0)"/>
      <use xlink:href="#DejaVuSans-6f" transform="translate(1108.699219 0)"/>
      <use xlink:href="#DejaVuSans-5f" transform="translate(1169.880859 0)"/>
      <use xlink:href="#DejaVuSans-69" transform="translate(1219.880859 0)"/>
      <use xlink:href="#DejaVuSans-63" transform="translate(1247.664062 0)"/>
     </g>
    </g>
   </g>
  </g>
 </g>
 <defs>
  <clipPath id="p2ab47bc4ee">
   <rect x="56.9" y="27.6" width="796.3" height="346.598714"/>
  </clipPath>
 </defs>
</svg>
